<?xml version="1.0" encoding="utf-8"?>
<!-- Generator: Adobe Illustrator 21.1.0, SVG Export Plug-In . SVG Version: 6.00 Build 0)  -->
<svg version="1.1" id="Layer_1" xmlns="http://www.w3.org/2000/svg" xmlns:xlink="http://www.w3.org/1999/xlink" x="0px" y="0px"
	 viewBox="0 0 230.2 76.3" style="enable-background:new 0 0 230.2 76.3;" xml:space="preserve">
<style type="text/css">
	.st0{fill:#FFFFFF;}
</style>
<g>
	<path class="st0" d="M66.5,32.5c0-1.5-0.9-2.4-2.3-2.4c-2.9,0-4.8,2.9-5,6.9C62.3,36.9,66.5,35.4,66.5,32.5z"/>
	<path class="st0" d="M154.3,32.5c0-1.5-0.9-2.4-2.3-2.4c-2.9,0-4.8,2.9-5,6.9C150.2,36.9,154.3,35.4,154.3,32.5z"/>
	<path class="st0" d="M28.4,39.8c0,4.5,0.9,8.2,4.1,8.2c2.3,0,3.7-1.7,3.7-3.2V30.7c-0.6-0.2-1.4-0.4-2.3-0.4
		C29.4,30.3,28.4,35.5,28.4,39.8z"/>
	<path class="st0" d="M45.9-0.3v48l0.6,6.4h-8.2l-0.5-2.8h-0.3C36,53.7,33.6,55,30.2,55c-9.8,0-11.5-7.6-11.5-14.4
		c0-10.1,5.4-17.3,14.7-17.3c1.3,0,2.1,0.1,2.8,0.3V-0.3H0v76.6h77.3V23.6c0-5.5,1.9-11.6,11.8-11.6c4.3,0,9.3,1.4,11.7,2.6
		l-2.2,6.3c-2.3-1-5.5-1.8-7.3-1.8c-2.7,0-4.3,0.9-4.3,3.4v1.6h16.2v29.9h-9.8V31.8h-6.4v44.5H230V-0.3H45.9z M64,55
		C53.8,55,49.7,48.8,49.7,40c0-8.5,5-16.6,15-16.6c6.1,0,10.2,3,10.2,9.1c0,8.5-9.6,10.2-15.3,10.5c0.2,2.6,2.2,4.8,5.8,4.8
		c2.8,0,5.4-1.2,7.2-2.5l2.6,6.4C75,52,70.6,55,64,55z M134.9,54.1h-9.8V35.3c0-2.7-0.3-4.6-2.6-4.6c-2.4,0-3.8,1.9-3.8,4.4v18.9
		H109V30.2l-0.7-6h8.1l0.6,3.2c1.9-2.5,4.6-4.1,8.5-4.1c5.7,0,9.3,3.2,9.3,10.3V54.1z M151.9,55c-10.3,0-14.3-6.2-14.3-15.1
		c0-8.5,5-16.6,15-16.6c6.1,0,10.2,3,10.2,9.1c0,8.5-9.6,10.2-15.3,10.5c0.2,2.6,2.2,4.8,5.8,4.8c2.8,0,5.4-1.2,7.2-2.5l2.6,6.4
		C162.8,52,158.4,55,151.9,55z M184.9,32.5c-1.2-0.6-2.7-1-4.2-1c-2.5,0-4.2,1.6-4.3,4.3v18.3h-9.7V29.9l-0.8-5.7h7.9l0.8,4.1
		c1.6-3.7,4.5-5,7-5c1.5,0,3.3,0.4,4.8,1.1L184.9,32.5z M201.4,35.6c4.3,1.4,9.2,3.3,9.2,9.5c0,6.5-4.7,10-11.9,10
		c-5.4,0-10-2-11.8-3.3l2.5-6.9c2.2,1.4,6.1,3,8.7,3c1.7,0,2.8-0.6,2.8-2.2c0-1.8-1.7-2.3-3.8-3c-4.6-1.5-9.2-3.2-9.2-9.5
		c0-6.4,5.1-9.9,11.7-9.9c4.7,0,8.9,1.8,11.7,4.4l-4.4,5.6c-2.6-2-5-3-6.8-3c-1.6,0-2.7,0.7-2.7,2.1C197.4,34.1,199,34.8,201.4,35.6
		z"/>
</g>
</svg>
