<?xml version="1.0" encoding="utf-8"?>
<!-- Generator: Adobe Illustrator 22.0.1, SVG Export Plug-In . SVG Version: 6.00 Build 0)  -->
<svg version="1.1" id="Group_5575" xmlns="http://www.w3.org/2000/svg" xmlns:xlink="http://www.w3.org/1999/xlink" x="0px" y="0px"
	 viewBox="0 0 166.5 35.9" style="enable-background:new 0 0 166.5 35.9;" xml:space="preserve">
<style type="text/css">
	.st0{fill:#487CA0;}
</style>
<rect id="Rectangle_3481" x="7.6" y="7" class="st0" width="3.4" height="21.4"/>
<path id="Path_5806" class="st0" d="M21.6,28.4L18,18.7l-1.2-3.3v13h-3.1V7h3l3.4,9.8l1.1,3.3V7h3.1v21.4H21.6z"/>
<path id="Path_5807" class="st0" d="M31.4,28.8c-3.1,0-5-1.9-5-4.9V22h3.1v1.8c0,1.3,0.6,2.1,1.8,2.1c0.9,0.1,1.8-0.6,1.8-1.6
	c0-0.1,0-0.3,0-0.4c0-1.9-0.9-3.3-2.7-5.1c-1.8-1.8-3.8-4.3-3.8-7c0-2.9,1.7-5.3,5-5.3c2.8,0,4.7,2,4.7,4.9v1.9h-3.1v-1.9
	c0-1.2-0.5-2-1.7-2c-0.9-0.1-1.6,0.6-1.7,1.4c0,0,0,0.1,0,0.1v0.2c0,2.1,0.9,3.1,2.9,5.3c2.1,2.1,3.6,4.3,3.6,7
	C36.4,26.9,34.2,28.8,31.4,28.8"/>
<rect id="Rectangle_3482" x="38.6" y="7" class="st0" width="3.4" height="21.4"/>
<path id="Path_5808" class="st0" d="M50,28.4h-5.2V7H50c3.1,0,4.9,1.9,4.9,5.1v11.3C54.8,26.6,53.1,28.4,50,28.4 M51.5,12.1
	c0-1.3-0.5-2-1.7-2h-1.6v15.3h1.6c1.2,0,1.7-0.7,1.7-2L51.5,12.1L51.5,12.1z"/>
<path id="Path_5809" class="st0" d="M57.4,28.4V7h8.6V10h-5.1v5.9h3.5v2.8h-3.5v6.5h5.1v3.1L57.4,28.4z"/>
<path id="Path_5810" class="st0" d="M72.7,28.8c-2.6,0.2-4.8-1.7-5-4.3c0-0.2,0-0.3,0-0.5v-2h2.6v1.7c0,1.8,0.9,2.8,2.4,2.8
	c1.2,0.1,2.3-0.9,2.4-2.1c0-0.1,0-0.2,0-0.3c0-2-0.8-3.4-3-5.4c-2-1.7-4.1-4.2-4.1-7s1.7-5,4.9-5c2.5-0.1,4.6,1.8,4.8,4.3
	c0,0.2,0,0.3,0,0.5v2h-2.5v-1.7c0-1.7-0.7-2.8-2.3-2.8c-1.1-0.1-2.1,0.7-2.1,1.8c0,0.1,0,0.3,0,0.4c0,2.1,0.9,3.3,3.3,5.6
	s3.8,4.2,3.8,6.9C77.7,27.1,75.4,28.8,72.7,28.8"/>
<path id="Path_5811" class="st0" d="M85.1,28.8c-3.3,0-5-2.2-5-5.3V11.8c0-3,1.8-5.3,5-5.3s5,2.3,5,5.3v11.6
	C90.1,26.6,88.4,28.8,85.1,28.8 M87.5,11.6c0.1-1.3-0.9-2.4-2.2-2.5C84,9,82.9,10,82.8,11.3c0,0.1,0,0.2,0,0.3v12.2
	c-0.2,1.2,0.7,2.3,1.9,2.5c0.2,0,0.3,0,0.5,0c1.2,0.1,2.3-0.9,2.4-2.1c0-0.1,0-0.3,0-0.4L87.5,11.6z"/>
<path id="Path_5812" class="st0" d="M98.1,28.8c-2.6,0.2-4.8-1.7-5-4.3c0-0.2,0-0.4,0-0.6V7h2.7v16.9c0,1.6,0.8,2.5,2.4,2.5
	s2.4-0.9,2.4-2.5V7h2.6v16.9c0.2,2.6-1.8,4.8-4.4,4.9C98.5,28.8,98.3,28.8,98.1,28.8"/>
<path id="Path_5813" class="st0" d="M115.9,28.6c-2,0-2.7-0.6-2.7-2.6v-4.9c0-1.3-0.6-2.1-1.8-2.1h-2.4v9.4h-2.7V7h5.3
	c2.7,0,4.3,1.3,4.3,4.3v3.3c0,1.8-0.6,3-2.3,3.4c1.5,0.4,2.5,1.8,2.4,3.3v4.6c0,0.6,0.2,0.9,0.8,0.9v1.9H115.9z M113.1,11.2
	c0-1.1-0.5-1.8-1.7-1.8h-2.5v7.5h2.3c1.2,0,1.9-0.8,1.9-2.1L113.1,11.2L113.1,11.2z"/>
<path id="Path_5814" class="st0" d="M123.6,28.8c-2.7,0.1-4.9-1.9-5-4.6c0-0.2,0-0.4,0-0.6V11.7c-0.2-2.6,1.8-5,4.4-5.1
	c0.2,0,0.4,0,0.6,0c3.3,0,4.9,2.1,4.9,4.9v2.9h-2.4v-3c0.1-1.2-0.8-2.3-2.1-2.5c-0.1,0-0.2,0-0.4,0c-1.2-0.1-2.3,0.8-2.4,2
	c0,0,0,0,0,0V24c-0.1,1.2,0.9,2.3,2.1,2.4c0.1,0,0.2,0,0.3,0c1.2,0.1,2.3-0.8,2.4-2c0-0.2,0-0.3,0-0.5v-3h2.4v2.9
	C128.5,26.6,126.9,28.8,123.6,28.8"/>
<path id="Path_5815" class="st0" d="M131.2,28.4V7h8.4v2.5h-5.7v6.6h4.1v2.4h-4.1v7.5h5.7v2.5H131.2z"/>
<path id="Path_5816" class="st0" d="M146.4,28.8c-2.6,0.2-4.8-1.7-5-4.3c0-0.2,0-0.3,0-0.5v-2h2.6v1.7c0,1.8,0.9,2.8,2.4,2.8
	c1.2,0.1,2.3-0.9,2.4-2.1c0-0.1,0-0.2,0-0.3c0-2-0.8-3.4-3-5.4c-2-1.7-4.1-4.2-4.1-7s1.7-5,4.9-5c2.5-0.1,4.6,1.8,4.8,4.3
	c0,0.2,0,0.3,0,0.5v2h-2.5v-1.7c0-1.7-0.7-2.8-2.3-2.8c-1.1-0.1-2.1,0.7-2.1,1.8c0,0.1,0,0.3,0,0.4c0,2.1,0.9,3.3,3.3,5.6
	s3.8,4.2,3.8,6.9C151.4,27.1,149.1,28.8,146.4,28.8"/>
<path id="Path_5817" class="st0" d="M11.9,35.9H0V0h11.9v2.7H2.7v30.6h9.2V35.9z"/>
<path id="Path_5818" class="st0" d="M158.4,35.9h-11.9v-2.7h9.2V2.7h-9.2V0h11.9V35.9z"/>
<path id="Path_5819" class="st0" d="M161,10V8.4h-0.4V8.1h0.4V7.3h0.2v0.8h0.9v0.2h-0.9V10c-0.1,0.2,0.2,0.4,0.4,0.5h0.1
	c0.1,0,0.3,0,0.4-0.1v0.2c-0.1,0.1-0.2,0.1-0.4,0.1c-0.4,0-0.7-0.2-0.7-0.6c0,0,0,0,0,0C161,10.1,161,10,161,10"/>
<path id="Path_5820" class="st0" d="M162.9,8.1h0.2v0.4c0.2-0.3,0.5-0.5,0.8-0.5c0.4,0,0.7,0.2,0.8,0.5c0.2-0.3,0.5-0.5,0.9-0.5
	c0.5,0,0.9,0.4,1,0.9v1.7h-0.2V9.2c0-0.5-0.3-0.9-0.8-0.9c-0.4,0-0.7,0.3-0.8,0.7c0,0,0,0,0,0.1v1.5h-0.2V9.1c0-0.5-0.3-0.8-0.7-0.8
	c-0.4,0-0.8,0.4-0.8,0.9l0,0v1.4h-0.2V8.1z"/>
</svg>
