<svg id="Group_5575" data-name="Group 5575" xmlns="http://www.w3.org/2000/svg" viewBox="0 0 166.518 35.92">
  <defs>
    <style>
      .cls-1 {
        fill: #fff;
      }
    </style>
  </defs>
  <rect id="Rectangle_3481" data-name="Rectangle 3481" class="cls-1" width="3.431" height="21.445" transform="translate(7.613 6.97)"/>
  <path id="Path_5806" data-name="Path 5806" class="cls-1" d="M33.481,34.445l-3.592-9.7-1.179-3.324V34.445H25.6V13h3l3.378,9.811,1.072,3.324V13h3.056V34.445Z" transform="translate(-11.875 -6.03)"/>
  <path id="Path_5807" data-name="Path 5807" class="cls-1" d="M54.239,34.5c-3.109,0-5.039-1.876-5.039-4.932V27.687h3.109v1.823c0,1.34.59,2.144,1.823,2.144a1.7,1.7,0,0,0,1.823-1.93c0-1.876-.911-3.27-2.734-5.147-1.769-1.769-3.806-4.289-3.806-7.023,0-2.9,1.662-5.254,4.986-5.254,2.841,0,4.718,1.984,4.718,4.932v1.93H56.009v-1.93c0-1.179-.536-1.984-1.662-1.984A1.55,1.55,0,0,0,52.685,16.8v.161c0,2.091.911,3.109,2.949,5.254,2.091,2.144,3.646,4.289,3.646,7.023-.054,3.378-2.252,5.254-5.039,5.254" transform="translate(-22.823 -5.706)"/>
  <rect id="Rectangle_3482" data-name="Rectangle 3482" class="cls-1" width="3.431" height="21.445" transform="translate(38.6 6.97)"/>
  <path id="Path_5808" data-name="Path 5808" class="cls-1" d="M88.7,34.445H83.5V13h5.2c3.109,0,4.879,1.93,4.879,5.093V29.405c0,3.27-1.769,5.039-4.879,5.039m1.5-16.352c0-1.34-.536-2.037-1.716-2.037H86.878V31.389h1.555c1.179,0,1.716-.7,1.716-2.037V18.093Z" transform="translate(-38.734 -6.03)"/>
  <path id="Path_5809" data-name="Path 5809" class="cls-1" d="M107,34.445V13h8.578v3.056h-5.147v5.9h3.538v2.841h-3.538v6.541h5.147v3.109Z" transform="translate(-49.636 -6.03)"/>
  <path id="Path_5810" data-name="Path 5810" class="cls-1" d="M131.286,34.5a4.647,4.647,0,0,1-4.986-4.771V27.74h2.627V29.4c0,1.823.858,2.841,2.359,2.841a2.253,2.253,0,0,0,2.359-2.466c0-1.984-.8-3.431-3-5.415-1.984-1.716-4.128-4.235-4.128-7.023s1.662-5.039,4.879-5.039a4.544,4.544,0,0,1,4.771,4.825v1.984h-2.52V17.393c0-1.662-.7-2.788-2.305-2.788a1.988,1.988,0,0,0-2.144,2.2c0,2.091.858,3.324,3.324,5.576s3.753,4.235,3.753,6.862c0,3.538-2.305,5.254-4.986,5.254" transform="translate(-58.589 -5.706)"/>
  <path id="Path_5811" data-name="Path 5811" class="cls-1" d="M154.339,34.5c-3.27,0-5.039-2.2-5.039-5.254V17.554c0-3,1.769-5.254,5.039-5.254s5.04,2.252,5.04,5.254V29.188c0,3.109-1.769,5.308-5.04,5.308m2.413-17.209a2.364,2.364,0,1,0-4.718,0V29.509a2.218,2.218,0,0,0,2.359,2.52,2.241,2.241,0,0,0,2.359-2.52Z" transform="translate(-69.258 -5.706)"/>
  <path id="Path_5812" data-name="Path 5812" class="cls-1" d="M178.586,34.82a4.657,4.657,0,0,1-4.986-4.932V13h2.681V29.941c0,1.608.751,2.466,2.359,2.466S181,31.55,181,29.941V13h2.627V29.888a4.672,4.672,0,0,1-5.039,4.932" transform="translate(-80.53 -6.03)"/>
  <path id="Path_5813" data-name="Path 5813" class="cls-1" d="M207.8,34.605c-1.984,0-2.681-.59-2.681-2.573V27.153c0-1.287-.59-2.144-1.823-2.144h-2.413v9.436H198.2V13h5.254c2.734,0,4.289,1.34,4.289,4.289v3.27c0,1.823-.59,3-2.252,3.431a3.135,3.135,0,0,1,2.359,3.324v4.557c0,.59.214.858.751.858v1.876Zm-2.788-17.37c0-1.126-.482-1.823-1.662-1.823h-2.52v7.452h2.252c1.179,0,1.876-.751,1.876-2.091V17.235Z" transform="translate(-91.942 -6.03)"/>
  <path id="Path_5814" data-name="Path 5814" class="cls-1" d="M226.24,34.5a4.808,4.808,0,0,1-5.039-5.147v-11.9A4.806,4.806,0,0,1,226.24,12.3c3.324,0,4.879,2.144,4.879,4.932v2.949h-2.359v-3a2.266,2.266,0,0,0-2.413-2.466,2.227,2.227,0,0,0-2.413,2.037V29.67a2.253,2.253,0,0,0,2.466,2.359,2.216,2.216,0,0,0,2.413-2.466v-3h2.359v2.949c-.054,2.841-1.662,4.986-4.932,4.986" transform="translate(-102.611 -5.706)"/>
  <path id="Path_5815" data-name="Path 5815" class="cls-1" d="M244.7,34.445V13h8.417v2.466h-5.736v6.648h4.128v2.359h-4.128v7.506h5.736v2.466Z" transform="translate(-113.512 -6.03)"/>
  <path id="Path_5816" data-name="Path 5816" class="cls-1" d="M268.786,34.5a4.647,4.647,0,0,1-4.986-4.771V27.74h2.627V29.4c0,1.823.858,2.841,2.359,2.841a2.253,2.253,0,0,0,2.359-2.466c0-1.984-.8-3.431-3-5.415-1.984-1.716-4.128-4.235-4.128-7.023s1.662-5.039,4.879-5.039a4.544,4.544,0,0,1,4.771,4.825v1.984h-2.52V17.393c0-1.662-.7-2.788-2.305-2.788a1.988,1.988,0,0,0-2.144,2.2c0,2.091.858,3.324,3.324,5.576s3.753,4.235,3.753,6.862c0,3.538-2.305,5.254-4.986,5.254" transform="translate(-122.373 -5.706)"/>
  <path id="Path_5817" data-name="Path 5817" class="cls-1" d="M11.9,35.92H0V0H11.9V2.681H2.681V33.239H11.9Z"/>
  <path id="Path_5818" data-name="Path 5818" class="cls-1" d="M285.1,35.92H273.2V33.239h9.221V2.681H273.2V0h11.9Z" transform="translate(-126.733)"/>
  <path id="Path_5819" data-name="Path 5819" class="cls-1" d="M300.075,16.327V14.719H299.7V14.5h.375v-.8h.214v.8h.858v.214h-.858v1.608c-.054.214.161.429.375.483h.107a.994.994,0,0,0,.375-.107v.214a.994.994,0,0,1-.375.107.647.647,0,0,1-.7-.59c-.054,0-.054-.054,0-.107" transform="translate(-139.026 -6.355)"/>
  <path id="Path_5820" data-name="Path 5820" class="cls-1" d="M303.8,15.154h.214v.429a.884.884,0,0,1,.8-.483.825.825,0,0,1,.8.536,1.019,1.019,0,0,1,.858-.536.986.986,0,0,1,.965.911v1.662h-.214V16.226c0-.536-.268-.858-.751-.858a.746.746,0,0,0-.751.8v1.5h-.214V16.119c0-.536-.268-.8-.7-.8a.874.874,0,0,0-.8.858h0v1.394H303.8Z" transform="translate(-140.928 -7.005)"/>
</svg>
